<?xml version="1.0" encoding="UTF-8"?>
<svg id="Layer_1" data-name="Layer 1" xmlns="http://www.w3.org/2000/svg" version="1.1" viewBox="0 0 486 493">
  <defs>
    <style>
      .cls-1 {
        stroke-width: 25px;
      }

      .cls-1, .cls-2, .cls-3 {
        fill: none;
        stroke: #fff;
        stroke-linecap: round;
        stroke-miterlimit: 10;
      }

      .cls-4 {
        fill: #ce115a;
        stroke-width: 0px;
      }

      .cls-2 {
        stroke-width: 21px;
      }

      .cls-3 {
        stroke-width: 24px;
      }
    </style>
  </defs>
  <g id="Hexa_Shape" data-name="Hexa Shape">
    <path id="Shape" class="cls-4" d="M486,298.8v-106.5c0-15.4-5-30.3-14.1-42.7l-64.9-87.1c-8.9-12-21.4-20.9-35.7-25.4L264.5,3.3c-14-4.4-29.1-4.4-43.1,0l-106.7,33.8c-14.3,4.5-26.7,13.4-35.7,25.4L14.1,149.6c-9.1,12.3-14.1,27.3-14.1,42.6v106.5c0,15.4,5,30.3,14.1,42.7l64.9,87.1c8.9,12,21.4,20.9,35.7,25.4l106.7,33.8c14,4.4,29.1,4.4,43.1,0l106.7-33.8c14.3-4.5,26.7-13.4,35.7-25.4l64.9-87.1c9.2-12.3,14.2-27.3,14.2-42.7h0Z"/>
  </g>
  <path id="Smile" class="cls-1" d="M82.1,260.5s3,70.2,44.1,111.3c41.1,41.1,110.3,43.1,110.3,43.1"/>
  <line id="Nose" class="cls-3" x1="346.2" y1="150.7" x2="192.1" y2="304.8"/>
  <ellipse id="Eye" class="cls-2" cx="183.9" cy="149.1" rx="47.6" ry="58.1"/>
  <ellipse id="Eye-2" class="cls-2" cx="345.9" cy="312.1" rx="47.6" ry="58.1"/>
</svg>